<?xml version="1.0" encoding="UTF-8"?>
<svg version="1.1" xmlns="http://www.w3.org/2000/svg" width="500" height="500">
<path d="M0 0 C165 0 330 0 500 0 C500 165 500 330 500 500 C335 500 170 500 0 500 C0 335 0 170 0 0 Z " fill="#FEFEFE" transform="translate(0,0)"/>
<path d="M0 0 C1.05948853 0.01244751 1.05948853 0.01244751 2.14038086 0.02514648 C10.04961998 0.28045909 15.22362012 2.38439494 21 7.6875 C26.83866049 13.98675088 29.32854806 20.79207953 29.28515625 29.296875 C29.28193359 30.41191406 29.27871094 31.52695313 29.27539062 32.67578125 C29.26282227 34.41408203 29.26282227 34.41408203 29.25 36.1875 C29.24548828 37.36183594 29.24097656 38.53617188 29.23632812 39.74609375 C29.22455094 42.64328072 29.20810326 45.54036454 29.1875 48.4375 C29.88721924 48.41655273 30.58693848 48.39560547 31.30786133 48.37402344 C34.53842264 48.28987066 37.76875226 48.23852929 41 48.1875 C42.10021484 48.15398437 43.20042969 48.12046875 44.33398438 48.0859375 C54.12423316 47.97041834 63.35285865 49.73103594 70.6875 56.66015625 C75.66657111 62.55983687 78.33596152 68.74212244 78.3125 76.4375 C78.31636719 77.7059375 78.31636719 77.7059375 78.3203125 79 C78.19583711 81.28448944 77.82627457 83.24741574 77.1875 85.4375 C75.7025 84.9425 75.7025 84.9425 74.1875 84.4375 C74.1875 83.7775 74.1875 83.1175 74.1875 82.4375 C72.764375 81.9734375 72.764375 81.9734375 71.3125 81.5 C68.1875 80.4375 68.1875 80.4375 66.1875 79.4375 C65.6953125 77.58203125 65.6953125 77.58203125 65.3125 75.25 C64.40903218 70.87860572 63.14327792 67.88590757 60.1875 64.4375 C55.78950461 61.79022833 52.42308534 61.03954179 47.3203125 60.92578125 C45.37318359 60.87260742 45.37318359 60.87260742 43.38671875 60.81835938 C42.02864997 60.79532742 40.67057698 60.77254272 39.3125 60.75 C37.96220761 60.71676952 36.61194571 60.6822747 35.26171875 60.64648438 C28.90205071 60.49206231 22.548662 60.42482836 16.1875 60.4375 C16.18862793 59.29273193 16.18975586 58.14796387 16.19091797 56.96850586 C16.18723132 52.69831474 16.14429899 48.42924437 16.08984375 44.15942383 C16.07173838 42.31574752 16.0641053 40.47193612 16.06738281 38.62817383 C16.07025579 35.96851188 16.03478099 33.31162022 15.9921875 30.65234375 C16.00128143 29.83539536 16.01037537 29.01844696 16.01974487 28.17674255 C15.88119158 22.65176069 14.51267921 19.79618586 10.70974731 15.78517151 C7.58813598 13.02155576 4.93650118 12.53642468 0.875 12 C-3.85623158 12.56133256 -7.32080887 14.17352786 -10.8125 17.4375 C-13.89125532 22.42971626 -14.27753435 26.43052027 -14.32421875 32.1171875 C-14.34216995 32.92995148 -14.36012115 33.74271545 -14.37861633 34.58010864 C-14.43248358 37.1575208 -14.46653836 39.7347503 -14.5 42.3125 C-14.53319399 44.06773362 -14.56768557 45.82294321 -14.60351562 47.578125 C-14.68819611 51.86445103 -14.75511897 56.15072512 -14.8125 60.4375 C-19.1025 60.4375 -23.3925 60.4375 -27.8125 60.4375 C-27.1525 59.220625 -26.4925 58.00375 -25.8125 56.75 C-21.98285127 48.08218295 -23.22159599 39.36551498 -26.12109375 30.625 C-27.98239011 24.73615277 -26.75501417 20.82039176 -24.25 15.375 C-19.03734744 5.56294812 -11.4262019 -0.17260945 0 0 Z " fill="#1192AE" transform="translate(248.8125,173.5625)"/>
<path d="M0 0 C2.86697492 1.28519565 4.97607712 2.57129254 7 5 C7 5.66 7 6.32 7 7 C7.66 7 8.32 7 9 7 C7.82705677 9.541377 6.6025186 11.51438769 4.875 13.75 C2.62377065 17.65213087 2.19450523 20.64707371 3 25 C4.32037307 28.94699758 5.69781488 31.9834149 9.02148438 34.578125 C13.07492343 36.51314378 16.58048657 36.47743113 21.01953125 36.51171875 C21.87810226 36.52966995 22.73667328 36.54762115 23.6212616 36.56611633 C26.3516251 36.62010741 29.08181492 36.65407874 31.8125 36.6875 C33.6686439 36.720683 35.52476492 36.75517358 37.38085938 36.79101562 C41.92044738 36.87582734 46.45998486 36.94269177 51 37 C51.01458252 38.08418213 51.02916504 39.16836426 51.04418945 40.28540039 C51.10243472 44.33178664 51.1796647 48.37763159 51.26245117 52.42358398 C51.29557767 54.17023899 51.32364737 55.91699788 51.34643555 57.66381836 C51.38020881 60.1838787 51.43253347 62.70299752 51.48828125 65.22265625 C51.49467117 65.99585709 51.5010611 66.76905792 51.50764465 67.56568909 C51.6458505 72.73415162 52.58614304 76.40429722 55 81 C59.27349327 84.96079864 61.96012349 86.30421639 67.8359375 86.21875 C72.2376939 85.77380711 75.80326466 84.27651769 78.875 81 C80.65696796 77.83205697 81.1487852 75.11871505 81.31640625 71.55078125 C81.35830078 70.70322266 81.40019531 69.85566406 81.44335938 68.98242188 C81.48267578 68.10134766 81.52199219 67.22027344 81.5625 66.3125 C81.62727539 64.97348633 81.62727539 64.97348633 81.69335938 63.60742188 C81.79935353 61.40509892 81.90142051 59.20266527 82 57 C85.54862949 59.75223739 88.22030153 62.4790486 91 66 C92.485 66.99 92.485 66.99 94 68 C95.17538936 74.19960268 94.0420343 80.51978091 91 86 C86.20802794 92.91231369 80.37908837 97.37824096 72 99 C63.54438072 99.89698932 56.9884047 99.03869852 50 94 C43.20064674 88.01147251 39.42115359 81.86798533 38.76635742 72.74462891 C38.70572785 69.13729403 38.73771374 65.54449888 38.8125 61.9375 C38.82603516 60.69033203 38.83957031 59.44316406 38.85351562 58.15820312 C38.8886098 55.10501033 38.93777733 52.0527401 39 49 C38.13834229 49.02618408 37.27668457 49.05236816 36.38891602 49.0793457 C33.15167569 49.16522856 29.91502128 49.22756659 26.67700195 49.2746582 C25.28325134 49.29960121 23.88962879 49.33356946 22.49633789 49.37719727 C12.36466903 49.68620044 5.5488156 48.71179087 -2.3046875 42.04296875 C-8.71554376 34.46795203 -10.66149521 28.25399399 -10.41796875 18.2578125 C-9.45282739 10.7351219 -5.68040629 4.86891968 0 0 Z " fill="#7EC2B8" transform="translate(183,228)"/>
<path d="M0 0 C5.60331078 0.70041385 11.41042773 3.05423209 15.1953125 7.37109375 C20.165024 15.24228352 20.51933728 24.35340597 19.5 33.4375 C18.0390625 36.70703125 18.0390625 36.70703125 16.5 39.4375 C15.57649273 42.20802181 15.33670415 44.00438758 15.3125 46.875 C15.29832031 47.63683594 15.28414062 48.39867187 15.26953125 49.18359375 C15.52770833 51.70847809 16.16873512 53.28771891 17.5 55.4375 C19.36644906 56.62080183 19.36644906 56.62080183 21.5 57.4375 C22.38776123 57.95111084 22.38776123 57.95111084 23.29345703 58.47509766 C25.97523522 59.64477785 28.00870796 59.69253528 30.9296875 59.7109375 C32.49396484 59.741875 32.49396484 59.741875 34.08984375 59.7734375 C36.27205729 59.79938534 38.45437599 59.81767066 40.63671875 59.828125 C46.7085236 59.96288762 50.83636713 60.12178895 55.5 64.4375 C57.40625 66.84765625 57.40625 66.84765625 59 69.5 C59.88558594 70.9540625 59.88558594 70.9540625 60.7890625 72.4375 C62.39722907 75.25729891 63.89081477 78.11362873 65.375 81 C69.74947258 89.13233066 76.51808594 98.13802137 85.5 101.4375 C91.41930287 102.37648739 96.52645275 101.97424471 101.5 98.4375 C107.72532555 92.7535071 113.52017389 84.57430563 114.87109375 76.11328125 C114.91930479 74.0429469 114.91930479 74.0429469 114.5 71.4375 C111.47361412 69.71436544 109.07561599 69.12370338 105.61328125 68.875 C104.67419922 68.80023438 103.73511719 68.72546875 102.76757812 68.6484375 C101.79240234 68.57882812 100.81722656 68.50921875 99.8125 68.4375 C93.52133234 67.97934349 87.54051901 67.32251896 81.4050293 65.83886719 C79.12392721 65.3582659 77.06742124 65.36212147 74.75 65.5625 C71.30341699 65.65890792 70.59767186 65.49854491 67.5 63.5625 C64.41915282 60.28909987 64.16612513 57.97623525 64.20703125 53.4765625 C64.66254967 50.30615433 66.25315657 48.6182598 68.5 46.4375 C71.97263273 44.70118364 75.71193013 44.83559598 79.5 45.4375 C82.25569447 47.61909145 83.93588747 49.30927494 85.5 52.4375 C85.63415472 55.1098621 85.54318541 57.76000488 85.5 60.4375 C91.57856427 62.84297453 97.61901157 63.1056931 104.06835938 63.56054688 C109.48162089 64.01472074 113.69567827 64.83802997 118.5 67.4375 C120.75224298 70.81586447 120.8446046 72.54901404 120.29296875 76.5078125 C117.26417956 87.69792035 111.15772793 98.23263805 101.5 104.796875 C95.40636452 108.27215149 90.45130285 108.07694895 83.75 106.625 C70.25032679 100.98016623 61.90261199 86.35068955 55.25097656 74.1706543 C52.83006999 69.782916 51.31838565 67.04362855 46.5 65.4375 C44.98786668 65.42437536 43.47481347 65.4688614 41.96484375 65.55078125 C23.99448696 66.2555651 23.99448696 66.2555651 17.37109375 61.296875 C14.85284505 58.79439821 12.74758222 56.17293689 10.8515625 53.171875 C9.58749199 51.29224336 9.58749199 51.29224336 7.3984375 50.390625 C5.5 49.4375 5.5 49.4375 4.5 46.4375 C2.65225612 45.88877343 2.65225612 45.88877343 0.4375 45.6875 C-8.49491177 43.93216076 -13.27146874 36.83197411 -18.15234375 29.671875 C-21.15060054 24.70085215 -21.25206065 19.50434471 -19.8984375 13.984375 C-17.95201422 7.88951422 -17.95201422 7.88951422 -15.5 5.4375 C-12.70155166 5.07872457 -11.096692 5.09937453 -8.625 6.5 C-6.83689665 9.57951133 -7.75407394 12.08083273 -8.5 15.4375 C-9.5 16.4375 -9.5 16.4375 -12.5625 16.5 C-13.531875 16.479375 -14.50125 16.45875 -15.5 16.4375 C-16.66278826 23.91256737 -12.77956791 28.57792284 -8.5 34.4375 C-7.736875 35.489375 -6.97375 36.54125 -6.1875 37.625 C-2.09578259 40.38453034 1.71439439 40.16283067 6.5 39.4375 C10.29448788 37.82282431 12.31690785 35.8986489 14.5 32.4375 C15.69669611 25.09307096 13.97633525 18.31478338 11.5 11.4375 C11.17 10.4475 10.84 9.4575 10.5 8.4375 C8.08354218 8.27062552 8.08354218 8.27062552 5.5 8.4375 C4.84 9.0975 4.18 9.7575 3.5 10.4375 C0.5 10.6875 0.5 10.6875 -2.5 10.4375 C-4.5 8.4375 -4.5 8.4375 -4.75 5.4375 C-4.43397144 1.64515729 -3.7799556 0.66149223 0 0 Z " fill="#81C3BA" transform="translate(202.5,191.5625)"/>
</svg>
